<svg width="24" height="26" viewBox="0 0 24 26" fill="none" xmlns="http://www.w3.org/2000/svg">
<g id="Icons">
<g id="Vector">
<path d="M22.9999 19.6285C22.9999 20.6329 22.608 21.5965 21.9107 22.3068C21.2134 23.0172 20.2677 23.4163 19.2816 23.4163H4.09858C3.27679 23.4163 2.48875 23.0836 1.90755 22.4918C1.32657 21.8997 1 21.097 1 20.2598V10.1588C1 9.32151 1.32658 8.51867 1.90755 7.92682C2.48875 7.33474 3.27679 7.00229 4.09858 7.00229H5.95783V5.73956C5.95783 4.90239 6.2842 4.09962 6.86538 3.50754C7.44637 2.91569 8.23462 2.58301 9.05641 2.58301H19.9014C20.7232 2.58301 21.5112 2.9157 22.0924 3.50754C22.6734 4.09962 23 4.90239 23 5.73956L22.9999 19.6285ZM5.95772 8.26491H4.09846C3.60545 8.26491 3.13254 8.4644 2.78389 8.81955C2.43526 9.1747 2.23944 9.65648 2.23944 10.1589V20.2599C2.23944 20.9365 2.59369 21.5616 3.16885 21.9001C3.74419 22.2385 4.45293 22.2385 5.0281 21.9001C5.60328 21.5616 5.95773 20.9365 5.95773 20.2599L5.95772 8.26491ZM21.7605 5.73961C21.7605 5.23737 21.5644 4.75562 21.2158 4.40045C20.8672 4.04529 20.3942 3.84581 19.9012 3.84581H9.0562C8.56319 3.84581 8.09028 4.0453 7.74163 4.40045C7.39278 4.7556 7.19696 5.23738 7.19696 5.73961V20.2597C7.19696 20.9427 6.97952 21.6072 6.5773 22.1536H19.2815C19.9387 22.1536 20.5692 21.8876 21.0341 21.414C21.4991 20.9404 21.7602 20.2981 21.7602 19.6285L21.7605 5.73961Z" fill="#CDCDCD"/>
<path d="M19.0206 9.04523H10.9076C10.6515 9.04523 10.4441 8.81215 10.4441 8.5244C10.4441 8.23682 10.6515 8.00357 10.9076 8.00357H19.0206C19.2765 8.00357 19.4841 8.23683 19.4841 8.5244C19.4841 8.81216 19.2765 9.04523 19.0206 9.04523Z" fill="#CDCDCD"/>
<path d="M19.0206 12.9997H10.9076C10.6515 12.9997 10.4441 12.7666 10.4441 12.4788C10.4441 12.1913 10.6515 11.958 10.9076 11.958H19.0206C19.2765 11.958 19.4841 12.1913 19.4841 12.4788C19.4841 12.7666 19.2765 12.9997 19.0206 12.9997Z" fill="#CDCDCD"/>
</g>
</g>
</svg>
