<svg width="22" height="18" viewBox="0 0 22 18" fill="none" xmlns="http://www.w3.org/2000/svg">
<path id="Vector" fill-rule="evenodd" clip-rule="evenodd" d="M17.9628 1.02959C18.2187 1.15772 18.4134 1.38224 18.5039 1.65381C18.5944 1.92538 18.5734 2.22177 18.4455 2.47787L17.1776 5.01586C18.6055 6.01026 19.7716 7.33531 20.5765 8.87796C21.3814 10.4206 21.8012 12.1351 21.8 13.8751V14.9551C21.8 15.528 21.5724 16.0774 21.1674 16.4825C20.7623 16.8875 20.2129 17.1151 19.64 17.1151H2.36001C1.78715 17.1151 1.23774 16.8875 0.832664 16.4825C0.427586 16.0774 0.200015 15.528 0.200015 14.9551V13.8751C0.198669 12.1349 0.618356 10.4202 1.42326 8.87736C2.22816 7.3345 3.39439 6.00928 4.82241 5.01478L3.55449 2.47787C3.48584 2.35056 3.44346 2.21076 3.42987 2.06676C3.41628 1.92277 3.43174 1.77751 3.47535 1.6396C3.51897 1.5017 3.58984 1.37396 3.68375 1.26396C3.77767 1.15397 3.89273 1.06396 4.0221 0.999273C4.15146 0.934589 4.29251 0.89655 4.43685 0.887412C4.5812 0.878274 4.72591 0.898223 4.86241 0.946076C4.9989 0.993929 5.12439 1.06871 5.23143 1.16598C5.33847 1.26326 5.42488 1.38104 5.48553 1.51235L6.71025 3.96071C8.06436 3.37462 9.52451 3.07318 11 3.07511C12.5239 3.07511 13.9754 3.39047 15.2898 3.96071L16.5145 1.51235C16.6426 1.25637 16.8671 1.06174 17.1387 0.971219C17.4103 0.880698 17.7067 0.901691 17.9628 1.02959ZM6.14001 9.5551C5.71036 9.5551 5.29831 9.72578 4.9945 10.0296C4.69069 10.3334 4.52001 10.7455 4.52001 11.1751C4.52001 11.6048 4.69069 12.0168 4.9945 12.3206C5.29831 12.6244 5.71036 12.7951 6.14001 12.7951C6.56966 12.7951 6.98172 12.6244 7.28553 12.3206C7.58933 12.0168 7.76001 11.6048 7.76001 11.1751C7.76001 10.7455 7.58933 10.3334 7.28553 10.0296C6.98172 9.72578 6.56966 9.5551 6.14001 9.5551ZM15.86 9.5551C15.4304 9.5551 15.0183 9.72578 14.7145 10.0296C14.4107 10.3334 14.24 10.7455 14.24 11.1751C14.24 11.6048 14.4107 12.0168 14.7145 12.3206C15.0183 12.6244 15.4304 12.7951 15.86 12.7951C16.2897 12.7951 16.7017 12.6244 17.0055 12.3206C17.3093 12.0168 17.48 11.6048 17.48 11.1751C17.48 10.7455 17.3093 10.3334 17.0055 10.0296C16.7017 9.72578 16.2897 9.5551 15.86 9.5551Z" fill="white"/>
</svg>
