<svg width="23" height="26" viewBox="0 0 23 26" fill="none" xmlns="http://www.w3.org/2000/svg">
<g id="logo-7075932 1" clip-path="url(#clip0_893_107)">
<path id="path5" fill-rule="evenodd" clip-rule="evenodd" d="M1.2002 9.43175C1.20791 9.41891 1.21609 9.40627 1.22427 9.39385C2.54649 7.33472 4.63219 6.12953 6.59355 6.12953C8.59075 6.12953 9.84622 7.23693 11.4971 7.23693C13.0989 7.23693 14.0746 6.12793 16.3836 6.12793C18.1282 6.12793 19.9779 7.08884 21.2954 8.75038C20.9311 8.95216 20.6025 9.18126 20.3088 9.43306L1.2002 9.43175Z" fill="#818181"/>
<path id="path7" fill-rule="evenodd" clip-rule="evenodd" d="M14.6322 4.27214C15.4703 3.18335 16.1078 1.64602 15.8767 0.0742188C14.5064 0.169233 12.9037 1.05167 11.9675 2.2004C11.118 3.24395 10.4167 4.79163 10.6898 6.29503C12.1858 6.34209 13.7334 5.43854 14.6322 4.27214Z" fill="#818181"/>
<path id="path9" fill-rule="evenodd" clip-rule="evenodd" d="M1.21384 9.41211C0.649399 10.3139 0.240359 11.6059 0.136719 12.7396H18.4668C18.6648 11.4993 19.3231 10.3144 20.3665 9.41348L1.21384 9.41211Z" fill="#818181"/>
<path id="path11" fill-rule="evenodd" clip-rule="evenodd" d="M0.232088 16.0313C0.052582 14.8727 0.023532 13.7557 0.136292 12.7309L18.4653 12.7305C18.286 13.8418 18.4364 14.9983 18.8899 16.032L0.232088 16.0313Z" fill="#818181"/>
<path id="path13" fill-rule="evenodd" clip-rule="evenodd" d="M1.12818 19.3314C0.695363 18.2226 0.399006 17.109 0.232422 16.0312L18.8902 16.032C19.4678 17.3492 20.5368 18.4682 22.042 19.0433C21.9972 19.1439 21.9541 19.2401 21.9126 19.3328L1.12818 19.3314Z" fill="#818181"/>
<path id="path15" fill-rule="evenodd" clip-rule="evenodd" d="M21.9123 19.3325C21.3955 20.4816 21.096 21.078 20.3808 22.179C20.2846 22.3268 20.1852 22.4781 20.0817 22.6307L2.85959 22.6323C2.80442 22.5492 2.74976 22.4661 2.69593 22.3837C2.05205 21.3918 1.53077 20.3634 1.12793 19.3311L21.9123 19.3325Z" fill="#818181"/>
<path id="path19" fill-rule="evenodd" clip-rule="evenodd" d="M20.0815 22.6311C19.028 24.1921 17.6136 25.9099 15.8973 25.9262C14.2227 25.9416 13.7931 24.8239 11.521 24.8365C9.24898 24.8493 8.77465 25.9457 7.09998 25.9298C5.30952 25.9131 3.91921 24.2261 2.85938 22.6327L20.0815 22.6311Z" fill="#818181"/>
</g>
<defs>
<clipPath id="clip0_893_107">
<rect width="22.1351" height="26" fill="white"/>
</clipPath>
</defs>
</svg>
