<svg width="68" height="36" viewBox="0 0 68 36" fill="none" xmlns="http://www.w3.org/2000/svg">
<path d="M16.4065 23.8403H13.7953L15.4273 13.811H18.0387L16.4065 23.8403ZM11.5987 13.811L9.10936 20.7092L8.8148 19.2238L8.81507 19.2243L7.93646 14.7141C7.93646 14.7141 7.83022 13.811 6.69783 13.811H2.58247L2.53418 13.9809C2.53418 13.9809 3.79266 14.2427 5.2655 15.1272L7.53405 23.8406H10.2546L14.4089 13.811H11.5987ZM32.1366 23.8403H34.5342L32.4438 13.8108H30.3448C29.3755 13.8108 29.1394 14.5582 29.1394 14.5582L25.2451 23.8403H27.967L28.5114 22.3505H31.8308L32.1366 23.8403ZM29.2634 20.2926L30.6353 16.5394L31.4072 20.2926H29.2634ZM25.4493 16.2228L25.8219 14.0691C25.8219 14.0691 24.6721 13.6318 23.4734 13.6318C22.1776 13.6318 19.1005 14.1982 19.1005 16.952C19.1005 19.543 22.712 19.5752 22.712 20.9362C22.712 22.2972 19.4726 22.0533 18.4035 21.1951L18.0153 23.447C18.0153 23.447 19.1813 24.0133 20.9626 24.0133C22.7445 24.0133 25.4326 23.0907 25.4326 20.5797C25.4326 17.972 21.7886 17.7292 21.7886 16.5955C21.7889 15.4615 24.3319 15.6072 25.4493 16.2228Z" fill="#4C70CE"/>
<path d="M7.82108 18.338L7.08165 14.5422C7.08165 14.5422 6.99224 13.7822 6.03923 13.7822H2.5758L2.53516 13.9251C2.53516 13.9251 4.19982 14.2701 5.79652 15.5627C7.32323 16.7982 7.82108 18.338 7.82108 18.338Z" fill="#E6A540"/>
<path d="M45.6738 10.2266H54.3261V25.7733H45.6738V10.2266Z" fill="#FF5F00"/>
<path d="M46.2232 17.9997C46.2232 14.841 47.7064 12.0392 49.9862 10.2263C48.3108 8.90787 46.1958 8.11133 43.8885 8.11133C38.4223 8.11133 34 12.5336 34 17.9997C34 23.4658 38.4223 27.8881 43.8884 27.8881C46.1957 27.8881 48.3107 27.0916 49.9862 25.7731C47.7064 23.9877 46.2232 21.1585 46.2232 17.9997Z" fill="#EB001B"/>
<path d="M65.9999 17.9997C65.9999 23.4658 61.5776 27.8881 56.1115 27.8881C53.8042 27.8881 51.6892 27.0916 50.0137 25.7731C52.321 23.9603 53.7768 21.1585 53.7768 17.9997C53.7768 14.841 52.2934 12.0392 50.0137 10.2263C51.6891 8.90787 53.8042 8.11133 56.1115 8.11133C61.5776 8.11133 65.9999 12.5611 65.9999 17.9997Z" fill="#F79E1B"/>
</svg>
