<svg width="66" height="24" viewBox="0 0 66 24" fill="none" xmlns="http://www.w3.org/2000/svg">
<path d="M12 24C18.6274 24 24 18.6274 24 12C24 5.37258 18.6274 0 12 0C5.37258 0 0 5.37258 0 12C0 18.6274 5.37258 24 12 24Z" fill="#F3BA2C"/>
<path d="M17.1477 15.2268L17.146 15.2276L11.9989 20.3756L6.85259 15.2293L6.8501 15.2268L8.74527 13.3366L11.9989 16.5894L15.2533 13.335L17.1477 15.2268Z" fill="white"/>
<path d="M17.1465 8.77198L15.2538 10.6647L11.9993 7.41022L8.74571 10.663L6.85303 8.77032L11.9993 3.62402L17.1465 8.77198Z" fill="white"/>
<path d="M18.4832 10.1081L16.5903 12.001L18.4832 13.8939L20.3762 12.001L18.4832 10.1081Z" fill="white"/>
<path d="M5.51645 10.1081L3.62354 12.001L5.51645 13.8939L7.40936 12.001L5.51645 10.1081Z" fill="white"/>
<path d="M13.9192 11.9991H13.92L11.9991 10.0781L10.58 11.4972L10.4171 11.6601L10.0806 11.9966L10.0781 11.9991L10.0806 12.0015L11.9999 13.9208L13.9208 11.9999L13.9216 11.9991H13.9192Z" fill="white"/>
<path d="M26 24C32.6274 24 38 18.6274 38 12C38 5.37258 32.6274 0 26 0C19.3726 0 14 5.37258 14 12C14 18.6274 19.3726 24 26 24Z" fill="url(#paint0_linear_947_2544)"/>
<path d="M32.3877 6.81055L25.9488 13.2495L19.5755 6.87655L19.5127 15.0735L14.4033 15.0572C14.6056 15.8232 14.8833 16.5673 15.2323 17.2786L21.7348 17.2957L21.624 11.7675L25.9828 16.1261L30.2848 11.8239V17.2522H36.7732C37.1053 16.5719 37.3723 15.8617 37.5705 15.1311H32.4319L32.3877 6.81055Z" fill="white"/>
<path d="M40 24C46.6274 24 52 18.6274 52 12C52 5.37258 46.6274 0 40 0C33.3726 0 28 5.37258 28 12C28 18.6274 33.3726 24 40 24Z" fill="#7C7C7C"/>
<path d="M40.0212 2.59082L34.2471 12.2071L40.0001 15.6197L45.7521 12.1787L40.0212 2.59082Z" fill="#C8C8C8"/>
<path d="M34.3276 13.3261L40.0291 21.4098L45.7014 13.2988L40.0001 16.6743L34.3276 13.3261Z" fill="#C8C8C8"/>
<path d="M40 16.6735L40.0291 21.409L34.3276 13.3252L40 16.6735Z" fill="white"/>
<path d="M40.0001 9.56978L34.2471 12.2071L40.0212 2.59082L40.0001 9.56978Z" fill="white"/>
<path d="M40.0001 9.56934V15.6192L34.2471 12.2066L40.0001 9.56934Z" fill="#E6E6E6"/>
<path d="M40 9.56978L45.752 12.1787L40.0211 2.59082L40 9.56978Z" fill="#E6E6E6"/>
<path d="M65.6408 14.903C64.0379 21.3315 57.5261 25.2439 51.096 23.6407C44.6686 22.038 40.7558 15.5266 42.3595 9.09839C43.9616 2.66907 50.4734 -1.24364 56.9016 0.359095C63.3313 1.96183 67.2437 8.47402 65.6408 14.903Z" fill="#F8A23B"/>
<path d="M59.2894 10.2907C59.5283 8.69397 58.3124 7.8356 56.6499 7.26299L57.1892 5.1L55.8724 4.77188L55.3473 6.87786C55.0012 6.79161 54.6457 6.71024 54.2924 6.62962L54.8212 4.50976L53.5052 4.18164L52.9655 6.34387C52.6789 6.27862 52.3977 6.21412 52.1246 6.14625V6.13948L50.3087 5.68611L49.9584 7.09235C49.9584 7.09235 50.9354 7.31622 50.9148 7.3301C51.4481 7.46322 51.5445 7.81609 51.5283 8.09584L50.914 10.5599C50.9506 10.5693 50.9984 10.5828 51.0509 10.6038C51.007 10.5929 50.9601 10.5809 50.9118 10.5693L50.0507 14.0211C49.9854 14.1831 49.82 14.4261 49.4472 14.3339C49.4602 14.353 48.4901 14.095 48.4901 14.095L47.8364 15.6021L49.55 16.0292C49.8688 16.1091 50.1812 16.1927 50.4887 16.2715L49.9438 18.4592L51.259 18.7873L51.7987 16.6229C52.158 16.7204 52.5068 16.8104 52.8481 16.8951L52.3103 19.0495L53.627 19.3776L54.172 17.194C56.4174 17.6189 58.1058 17.4475 58.8165 15.4169C59.3892 13.7819 58.7882 12.8388 57.6066 12.2238C58.467 12.0254 59.115 11.4595 59.2879 10.2907L59.2894 10.2907ZM56.2808 14.509C55.8739 16.144 53.1208 15.2602 52.2282 15.0385L52.9512 12.1402C53.8438 12.3629 56.7061 12.8039 56.2808 14.509ZM56.6881 10.2671C56.3168 11.7543 54.0253 10.9987 53.282 10.8134L53.9376 8.18472C54.6809 8.36997 57.0748 8.71572 56.6881 10.2671Z" fill="white"/>
<defs>
<linearGradient id="paint0_linear_947_2544" x1="26.2642" y1="-2.15739" x2="26.2642" y2="17.4325" gradientUnits="userSpaceOnUse">
<stop stop-color="#FE6600"/>
<stop offset="1" stop-color="#585858"/>
</linearGradient>
</defs>
</svg>
