<svg width="26" height="26" viewBox="0 0 26 26" fill="none" xmlns="http://www.w3.org/2000/svg">
<g id="google" clip-path="url(#clip0_893_1052)">
<g id="Vector">
<path d="M25.7471 10.4539H24.7L13 10.4724V15.6H20.347C19.2751 18.627 16.3949 20.8 13 20.8C8.69245 20.8 5.2 17.3075 5.2 13C5.2 8.69245 8.69245 5.2 13 5.2C14.9883 5.2 16.7973 5.9501 18.1746 7.17535L21.8517 3.4983C19.5299 1.33445 16.4242 0 13 0C5.82075 0 0 5.82075 0 13C0 20.1792 5.82075 26 13 26C20.1792 26 26 20.1792 26 13C26 12.1283 25.9103 11.2775 25.7471 10.4539Z" fill="#FFC107"/>
<path d="M1.49871 6.94915L5.76986 10.0815C6.92556 7.2202 9.72465 5.2 13 5.2C14.9883 5.2 16.7973 5.9501 18.1746 7.17535L21.8517 3.4983C19.5299 1.33445 16.4242 0 13 0C8.0067 0 3.67621 2.81905 1.49871 6.94915Z" fill="#FF3D00"/>
<path d="M12.9996 25.9982C16.3575 25.9982 19.4086 24.7131 21.7154 22.6234L17.6919 19.2187C16.3867 20.2073 14.7643 20.7982 12.9996 20.7982C9.61829 20.7982 6.74724 18.6421 5.66564 15.6333L1.42634 18.8995C3.57784 23.1096 7.94714 25.9982 12.9996 25.9982Z" fill="#4CAF50"/>
<path d="M25.7471 10.4539H24.7L24.7002 10.452H13.0002L13 15.6H20.347C19.8321 17.054 18.897 18.3081 17.6906 19.2213L17.6926 19.22L21.7161 22.6247C21.4314 22.8834 26 19.5 26 13C26 12.1283 25.9103 11.2775 25.7471 10.4539Z" fill="#1976D2"/>
</g>
</g>
<defs>
<clipPath id="clip0_893_1052">
<rect width="26" height="26" fill="white"/>
</clipPath>
</defs>
</svg>
