<svg width="18" height="22" viewBox="0 0 18 22" fill="none" xmlns="http://www.w3.org/2000/svg">
<path id="Vector" d="M18 15.8954C17.5077 16.9853 17.2723 17.4726 16.6401 18.4357C15.7569 19.7808 14.5098 21.4592 12.968 21.4707C11.5966 21.4823 11.2426 20.5759 9.38143 20.5908C7.52024 20.5998 7.13253 21.4872 5.75948 21.4732C4.21769 21.4592 3.03727 19.947 2.15318 18.6045C-0.318792 14.8385 -0.579736 10.4246 0.948064 8.07613C2.02888 6.41086 3.73943 5.43294 5.34543 5.43294C6.98107 5.43294 8.0092 6.33184 9.36167 6.33184C10.6738 6.33184 11.4731 5.43047 13.3647 5.43047C14.7954 5.43047 16.3084 6.21001 17.3892 7.55507C13.8529 9.49281 14.4274 14.5438 18 15.8954ZM11.9291 3.92736C12.6173 3.04411 13.1392 1.79783 12.9499 0.526855C11.8271 0.60341 10.5141 1.32039 9.74691 2.24892C9.05216 3.09432 8.47594 4.35047 8.70067 5.56547C9.92554 5.60498 11.1932 4.87483 11.9291 3.92736Z" fill="white"/>
</svg>
