<svg width="24" height="26" viewBox="0 0 24 26" fill="none" xmlns="http://www.w3.org/2000/svg">
<g id="Icons">
<g id="Vector">
<path d="M22.9999 19.8943C22.9999 20.9389 22.608 21.941 21.9107 22.6798C21.2134 23.4185 20.2677 23.8337 19.2816 23.8337H4.09858C3.27679 23.8337 2.48875 23.4877 1.90755 22.8721C1.32657 22.2564 1 21.4215 1 20.5508V10.0459C1 9.17503 1.32658 8.34008 1.90755 7.72456C2.48875 7.10879 3.27679 6.76304 4.09858 6.76304H5.95783V5.4498C5.95783 4.57915 6.2842 3.74427 6.86538 3.1285C7.44637 2.51298 8.23462 2.16699 9.05641 2.16699H19.9014C20.7232 2.16699 21.5112 2.51299 22.0924 3.1285C22.6734 3.74427 23 4.57915 23 5.4498L22.9999 19.8943ZM5.95772 8.07617H4.09846C3.60545 8.07617 3.13254 8.28364 2.78389 8.65299C2.43526 9.02236 2.23944 9.52341 2.23944 10.046V20.551C2.23944 21.2546 2.59369 21.9048 3.16885 22.2567C3.74419 22.6087 4.45293 22.6087 5.0281 22.2567C5.60328 21.9048 5.95773 21.2546 5.95773 20.551L5.95772 8.07617ZM21.7605 5.44986C21.7605 4.92753 21.5644 4.4265 21.2158 4.05713C20.8672 3.68777 20.3942 3.4803 19.9012 3.4803H9.0562C8.56319 3.4803 8.09028 3.68777 7.74163 4.05713C7.39278 4.42649 7.19696 4.92754 7.19696 5.44986V20.5508C7.19696 21.2611 6.97952 21.9522 6.5773 22.5204H19.2815C19.9387 22.5204 20.5692 22.2437 21.0341 21.7512C21.4991 21.2586 21.7602 20.5907 21.7602 19.8943L21.7605 5.44986Z" fill="white"/>
<path d="M19.0206 8.8877H10.9076C10.6515 8.8877 10.4441 8.6453 10.4441 8.34604C10.4441 8.04695 10.6515 7.80437 10.9076 7.80437H19.0206C19.2765 7.80437 19.4841 8.04696 19.4841 8.34604C19.4841 8.64531 19.2765 8.8877 19.0206 8.8877Z" fill="white"/>
<path d="M19.0206 13.0003H10.9076C10.6515 13.0003 10.4441 12.7579 10.4441 12.4587C10.4441 12.1596 10.6515 11.917 10.9076 11.917H19.0206C19.2765 11.917 19.4841 12.1596 19.4841 12.4587C19.4841 12.7579 19.2765 13.0003 19.0206 13.0003Z" fill="white"/>
</g>
</g>
</svg>
