<svg width="54" height="54" viewBox="0 0 54 54" fill="none" xmlns="http://www.w3.org/2000/svg">
<g id="Group 1">
<circle id="Ellipse 11" cx="27" cy="23" r="20" fill="black"/>
<g id="Group">
<g id="Group_2">
<path id="Vector" d="M27.3354 25.7695C24.8995 25.7695 22.4833 25.6136 20.121 25.3037C15.9326 24.7533 13.0091 23.8668 11.726 23.4239C11.3232 23.2849 11.1392 22.835 11.3098 22.4445C11.4742 22.0683 11.9064 21.8873 12.295 22.0196C13.5334 22.4412 16.3824 23.2982 20.3919 23.8201C25.2828 24.4564 32.9285 24.7072 41.8573 22.3759C42.2553 22.272 42.6667 22.5003 42.7826 22.8949C42.9015 23.2995 42.6656 23.7234 42.2576 23.83C38.2915 24.8658 34.2514 25.4929 30.2369 25.6963C29.2677 25.7449 28.2998 25.7695 27.3354 25.7695Z" fill="url(#paint0_linear_697_2699)"/>
</g>
</g>
<g id="Group " filter="url(#filter0_d_697_2699)">
<path id="Vector 3" d="M22.5895 25.1336C22.262 24.3007 22.2008 23.1986 22.2434 22.1837C22.3167 20.439 23.5794 19.0388 25.2166 18.4314C26.3677 18.0044 27.6337 18.0044 28.7848 18.4314C30.422 19.0388 31.6846 20.439 31.7579 22.1837C31.8006 23.1986 31.7393 24.3007 31.4119 25.1336C31.2953 25.4302 31.1347 25.7187 30.9435 25.9963C29.1138 28.652 24.8876 28.652 23.0579 25.9963C22.8667 25.7187 22.7061 25.4302 22.5895 25.1336Z" fill="#A1E6F6"/>
<path id="Vector_2" d="M27.9546 22.5845C27.9547 22.8041 27.8936 23.0183 27.7797 23.1977C27.6658 23.377 27.5047 23.5127 27.3187 23.5859L27.5635 24.9942C27.5724 25.0454 27.571 25.0982 27.5594 25.1488C27.5479 25.1993 27.5264 25.2464 27.4966 25.2867C27.4667 25.3269 27.4293 25.3593 27.3869 25.3815C27.3444 25.4038 27.2981 25.4153 27.2513 25.4153H26.7502C26.7034 25.4152 26.6571 25.4036 26.6148 25.3813C26.5725 25.359 26.5351 25.3266 26.5053 25.2864C26.4755 25.2462 26.4541 25.1991 26.4426 25.1486C26.4311 25.0981 26.4297 25.0454 26.4386 24.9942L26.6828 23.5859C26.5179 23.521 26.3723 23.407 26.2617 23.2562C26.1512 23.1054 26.08 22.9237 26.0559 22.731C26.0319 22.5382 26.0559 22.3418 26.1254 22.1633C26.1948 21.9847 26.3071 21.8308 26.4498 21.7184C26.5926 21.606 26.7603 21.5394 26.9347 21.526C27.1092 21.5125 27.2836 21.5527 27.4389 21.6421C27.5942 21.7315 27.7244 21.8666 27.8154 22.0328C27.9063 22.199 27.9545 22.3899 27.9546 22.5845Z" fill="black"/>
</g>
<g id="Group _2">
<path id="Union" fill-rule="evenodd" clip-rule="evenodd" d="M27.0002 6.69256C27.013 6.69244 27.0258 6.69238 27.0385 6.69238V6.69311C29.1631 6.73339 31.1964 8.44684 32.7002 11.4688C34.2221 14.5271 35.0771 18.675 35.0771 23.0001C35.0771 27.3251 34.2221 31.4731 32.7002 34.5314C31.1964 37.5533 29.1631 39.2668 27.0385 39.307V39.3078C27.0258 39.3078 27.0131 39.3077 27.0004 39.3076C26.9876 39.3077 26.9747 39.3078 26.9619 39.3078V39.307C24.8373 39.2668 22.804 37.5533 21.3002 34.5314C19.7783 31.4731 18.9233 27.3251 18.9233 23.0001C18.9233 18.675 19.7783 14.5271 21.3002 11.4688C22.804 8.44684 24.8373 6.73339 26.9619 6.69311V6.69238C26.9747 6.69238 26.9874 6.69244 27.0002 6.69256ZM27.0002 7.98118C25.1836 8.01732 23.4436 10.6104 22.1583 13.1932C20.864 15.7941 20.1369 19.3218 20.1369 23.0001C20.1369 26.6784 20.864 30.206 22.1583 32.807C23.4436 35.3898 25.1837 37.983 27.0003 38.019C28.8169 37.9828 30.5568 35.3897 31.8421 32.807C33.1364 30.206 33.8635 26.6784 33.8635 23.0001C33.8635 19.3218 33.1364 15.7941 31.8421 13.1932C30.5568 10.6104 28.8168 8.01722 27.0002 7.98118Z" fill="url(#paint1_linear_697_2699)"/>
</g>
<g id="Group _3">
<g id="Ellipse 6" filter="url(#filter1_d_697_2699)">
<circle cx="8.46094" cy="22.7695" r="1" fill="#A1E6F6"/>
</g>
<g id="Ellipse 4" filter="url(#filter2_d_697_2699)">
<circle cx="26.999" cy="4.46191" r="1" fill="#A1E6F6"/>
</g>
<g id="Ellipse 5" filter="url(#filter3_d_697_2699)">
<circle cx="45.5376" cy="22.9238" r="1" fill="#A1E6F6"/>
</g>
<g id="Ellipse 6_2" filter="url(#filter4_d_697_2699)">
<circle cx="27.3071" cy="41.5391" r="1" fill="#A1E6F6"/>
</g>
</g>
<path id="Union_2" fill-rule="evenodd" clip-rule="evenodd" d="M23.7306 4.54727C24.0711 4.48743 24.388 4.72671 24.4365 5.06897C24.485 5.41142 24.2463 5.72716 23.9058 5.78788C20.4381 6.40625 17.2371 8.06992 14.7375 10.5624C12.2382 13.0546 10.5676 16.2481 9.9433 19.7094C9.88185 20.0501 9.56556 20.2885 9.22287 20.2396C8.87999 20.1907 8.64065 19.8727 8.70131 19.5317C9.36468 15.8021 11.16 12.3601 13.8515 9.67639C16.5434 6.99214 19.9938 5.20409 23.7306 4.54727ZM45.1492 20.2821C45.187 20.606 44.9445 20.8917 44.6195 20.9188C44.2946 20.9459 44.0103 20.7042 43.9718 20.3805C43.5438 16.7795 41.9658 13.4055 39.4636 10.763C36.9611 8.12017 33.6753 6.35803 30.0982 5.72998C29.7774 5.67366 29.5522 5.37654 29.5975 5.05399C29.6427 4.73161 29.941 4.50593 30.2617 4.56149C34.1044 5.22706 37.635 7.11552 40.3216 9.95286C43.0078 12.7897 44.6984 16.4146 45.1492 20.2821ZM9.30759 25.5259C8.95617 25.5702 8.70608 25.8913 8.76267 26.241C9.37038 29.996 11.1262 33.4778 13.7972 36.2046C16.4686 38.9318 19.9166 40.7619 23.6636 41.4513C24.0113 41.5153 24.3372 41.2729 24.3893 40.9232C24.4414 40.5734 24.1996 40.2488 23.8519 40.1839C20.3818 39.536 17.1896 37.8366 14.7139 35.3092C12.2385 32.7821 10.6077 29.5581 10.0357 26.0801C9.97823 25.7308 9.65883 25.4817 9.30759 25.5259ZM30.9222 41.4422C30.5844 41.5196 30.2547 41.2964 30.1885 40.9562C30.1222 40.6157 30.345 40.2872 30.6829 40.2088C33.9992 39.4393 37.018 37.7044 39.3531 35.2174C41.6878 32.7306 43.227 29.6111 43.7825 26.2573C43.8393 25.9149 44.1529 25.6713 44.4972 25.7153C44.8417 25.7594 45.0863 26.0747 45.0304 26.4175C44.4406 30.033 42.7859 33.3968 40.2703 36.0761C37.7543 38.7559 34.4983 40.6218 30.9222 41.4422Z" fill="url(#paint2_linear_697_2699)"/>
<g id="Group _4">
<path id="Ellipse 7" d="M16.0653 11.0843C15.8638 11.3386 15.906 11.7089 16.1666 11.9022C19.288 14.2164 23.0773 15.465 26.9712 15.4527C30.8645 15.4404 34.642 14.1683 37.7425 11.8351C38.0021 11.6397 38.0416 11.2683 37.8377 11.0153C37.6339 10.7623 37.2642 10.7233 37.0043 10.9181C34.1117 13.0846 30.5926 14.2655 26.966 14.2769C23.339 14.2884 19.809 13.1295 16.8971 10.9809C16.636 10.7882 16.2669 10.83 16.0653 11.0843Z" fill="url(#paint3_linear_697_2699)"/>
</g>
<path id="Ellipse 7_2" d="M37.8836 34.6086C38.0837 34.3532 38.0394 33.9831 37.7777 33.7914C34.6431 31.495 30.8467 30.268 26.953 30.3025C23.0598 30.337 19.2896 31.6306 16.2025 33.9814C15.944 34.1783 15.9066 34.5499 16.112 34.8018C16.3172 35.0535 16.6871 35.0904 16.9459 34.8942C19.826 32.7113 23.3384 31.5103 26.9649 31.4782C30.5918 31.4461 34.1283 32.5848 37.0524 34.7168C37.3146 34.908 37.6834 34.8641 37.8836 34.6086Z" fill="url(#paint4_linear_697_2699)"/>
</g>
<defs>
<filter id="filter0_d_697_2699" x="15.2314" y="18.1113" width="23.5386" height="34.877" filterUnits="userSpaceOnUse" color-interpolation-filters="sRGB">
<feFlood flood-opacity="0" result="BackgroundImageFix"/>
<feColorMatrix in="SourceAlpha" type="matrix" values="0 0 0 0 0 0 0 0 0 0 0 0 0 0 0 0 0 0 127 0" result="hardAlpha"/>
<feOffset dy="18"/>
<feGaussianBlur stdDeviation="3.5"/>
<feComposite in2="hardAlpha" operator="out"/>
<feColorMatrix type="matrix" values="0 0 0 0 0.400765 0 0 0 0 0.400765 0 0 0 0 0.400765 0 0 0 0.21 0"/>
<feBlend mode="normal" in2="BackgroundImageFix" result="effect1_dropShadow_697_2699"/>
<feBlend mode="normal" in="SourceGraphic" in2="effect1_dropShadow_697_2699" result="shape"/>
</filter>
<filter id="filter1_d_697_2699" x="0.760938" y="19.0695" width="15.4" height="15.4" filterUnits="userSpaceOnUse" color-interpolation-filters="sRGB">
<feFlood flood-opacity="0" result="BackgroundImageFix"/>
<feColorMatrix in="SourceAlpha" type="matrix" values="0 0 0 0 0 0 0 0 0 0 0 0 0 0 0 0 0 0 127 0" result="hardAlpha"/>
<feOffset dy="4"/>
<feGaussianBlur stdDeviation="3.35"/>
<feComposite in2="hardAlpha" operator="out"/>
<feColorMatrix type="matrix" values="0 0 0 0 0 0 0 0 0 0 0 0 0 0 0 0 0 0 0.14 0"/>
<feBlend mode="normal" in2="BackgroundImageFix" result="effect1_dropShadow_697_2699"/>
<feBlend mode="normal" in="SourceGraphic" in2="effect1_dropShadow_697_2699" result="shape"/>
</filter>
<filter id="filter2_d_697_2699" x="19.299" y="0.761914" width="15.4" height="15.4" filterUnits="userSpaceOnUse" color-interpolation-filters="sRGB">
<feFlood flood-opacity="0" result="BackgroundImageFix"/>
<feColorMatrix in="SourceAlpha" type="matrix" values="0 0 0 0 0 0 0 0 0 0 0 0 0 0 0 0 0 0 127 0" result="hardAlpha"/>
<feOffset dy="4"/>
<feGaussianBlur stdDeviation="3.35"/>
<feComposite in2="hardAlpha" operator="out"/>
<feColorMatrix type="matrix" values="0 0 0 0 0 0 0 0 0 0 0 0 0 0 0 0 0 0 0.14 0"/>
<feBlend mode="normal" in2="BackgroundImageFix" result="effect1_dropShadow_697_2699"/>
<feBlend mode="normal" in="SourceGraphic" in2="effect1_dropShadow_697_2699" result="shape"/>
</filter>
<filter id="filter3_d_697_2699" x="37.8376" y="19.2238" width="15.4" height="15.4" filterUnits="userSpaceOnUse" color-interpolation-filters="sRGB">
<feFlood flood-opacity="0" result="BackgroundImageFix"/>
<feColorMatrix in="SourceAlpha" type="matrix" values="0 0 0 0 0 0 0 0 0 0 0 0 0 0 0 0 0 0 127 0" result="hardAlpha"/>
<feOffset dy="4"/>
<feGaussianBlur stdDeviation="3.35"/>
<feComposite in2="hardAlpha" operator="out"/>
<feColorMatrix type="matrix" values="0 0 0 0 0 0 0 0 0 0 0 0 0 0 0 0 0 0 0.14 0"/>
<feBlend mode="normal" in2="BackgroundImageFix" result="effect1_dropShadow_697_2699"/>
<feBlend mode="normal" in="SourceGraphic" in2="effect1_dropShadow_697_2699" result="shape"/>
</filter>
<filter id="filter4_d_697_2699" x="19.6071" y="37.8391" width="15.4" height="15.4" filterUnits="userSpaceOnUse" color-interpolation-filters="sRGB">
<feFlood flood-opacity="0" result="BackgroundImageFix"/>
<feColorMatrix in="SourceAlpha" type="matrix" values="0 0 0 0 0 0 0 0 0 0 0 0 0 0 0 0 0 0 127 0" result="hardAlpha"/>
<feOffset dy="4"/>
<feGaussianBlur stdDeviation="3.35"/>
<feComposite in2="hardAlpha" operator="out"/>
<feColorMatrix type="matrix" values="0 0 0 0 0 0 0 0 0 0 0 0 0 0 0 0 0 0 0.14 0"/>
<feBlend mode="normal" in2="BackgroundImageFix" result="effect1_dropShadow_697_2699"/>
<feBlend mode="normal" in="SourceGraphic" in2="effect1_dropShadow_697_2699" result="shape"/>
</filter>
<linearGradient id="paint0_linear_697_2699" x1="26.9992" y1="21.7696" x2="26.9992" y2="25.7695" gradientUnits="userSpaceOnUse">
<stop stop-color="white"/>
<stop stop-color="#EBEBFD"/>
<stop offset="1" stop-color="#008EAF"/>
</linearGradient>
<linearGradient id="paint1_linear_697_2699" x1="27.0004" y1="6.69278" x2="27.0004" y2="39.3078" gradientUnits="userSpaceOnUse">
<stop stop-color="white"/>
<stop stop-color="#EBEBFD"/>
<stop offset="1" stop-color="#008EAF"/>
</linearGradient>
<linearGradient id="paint2_linear_697_2699" x1="26.9227" y1="4.53854" x2="26.9227" y2="41.4616" gradientUnits="userSpaceOnUse">
<stop stop-color="white"/>
<stop stop-color="#EBEBFD"/>
<stop offset="1" stop-color="#008EAF"/>
</linearGradient>
<linearGradient id="paint3_linear_697_2699" x1="26.9532" y1="10.795" x2="26.9532" y2="15.4528" gradientUnits="userSpaceOnUse">
<stop stop-color="white"/>
<stop stop-color="#EBEBFD"/>
<stop offset="1" stop-color="#008EAF"/>
</linearGradient>
<linearGradient id="paint4_linear_697_2699" x1="26.9943" y1="30.3018" x2="26.9943" y2="35.0195" gradientUnits="userSpaceOnUse">
<stop stop-color="white"/>
<stop stop-color="#EBEBFD"/>
<stop offset="1" stop-color="#008EAF"/>
</linearGradient>
</defs>
</svg>
