<svg width="18" height="24" viewBox="0 0 18 24" fill="none" xmlns="http://www.w3.org/2000/svg">
<g id="logos:google-play-icon" clip-path="url(#clip0_893_7462)">
<path id="Vector" d="M8.40625 11.4854L0.074707 21.1842C0.168269 21.5526 0.336404 21.8924 0.566258 22.1775C0.796112 22.4627 1.0816 22.6856 1.4009 22.8294C1.7202 22.9732 2.06485 23.0339 2.40852 23.007C2.75218 22.9801 3.08576 22.8662 3.38375 22.6741L12.7583 16.7418L8.40625 11.4854Z" fill="#EA4335"/>
<path id="Vector_2" d="M16.8307 9.83684L12.7768 7.25684L8.21368 11.7061L12.7954 16.7279L16.8184 14.1756C17.1748 13.9682 17.4733 13.6565 17.6816 13.274C17.8899 12.8916 18 12.4532 18 12.0062C18 11.5592 17.8899 11.1207 17.6816 10.7383C17.4733 10.3559 17.1748 10.0441 16.8184 9.83676L16.8307 9.83684Z" fill="#FBBC04"/>
<path id="Vector_3" d="M0.0745545 2.78027C0.024195 2.98714 -0.000873828 3.20059 2.32477e-05 3.41488V20.5498C0.000545377 20.764 0.0255901 20.9773 0.0745545 21.1845L8.6917 11.734L0.0745545 2.78027Z" fill="#4285F4"/>
<path id="Vector_4" d="M8.46815 11.9823L12.7768 7.25711L3.41465 1.29711C3.06241 1.0679 2.66178 0.946514 2.25358 0.945317C1.24059 0.94313 0.350008 1.69016 0.0745239 2.77336L8.46815 11.9823Z" fill="#34A853"/>
</g>
<defs>
<clipPath id="clip0_893_7462">
<rect width="18" height="22.1094" fill="white" transform="translate(0 0.945312)"/>
</clipPath>
</defs>
</svg>
