<svg width="44" height="28" viewBox="0 0 44 28" fill="none" xmlns="http://www.w3.org/2000/svg">
<g clip-path="url(#clip0_947_3324)">
<path d="M19.5382 19.8072H16.5166L18.405 8.20152H21.4269L19.5382 19.8072ZM13.9747 8.20152L11.094 16.184L10.7532 14.4651L10.7535 14.4657L9.73678 9.24648C9.73678 9.24648 9.61385 8.20152 8.30346 8.20152H3.54123L3.48535 8.39803C3.48535 8.39803 4.94165 8.70102 6.64599 9.72456L9.27112 19.8075H12.4193L17.2266 8.20152H13.9747ZM37.7408 19.8072H40.5152L38.0962 8.20121H35.6673C34.5457 8.20121 34.2725 9.06611 34.2725 9.06611L29.7661 19.8072H32.9159L33.5457 18.0833H37.3869L37.7408 19.8072ZM34.4159 15.7019L36.0035 11.3587L36.8967 15.7019H34.4159ZM30.0023 10.9924L30.4335 8.50017C30.4335 8.50017 29.103 7.99414 27.7159 7.99414C26.2164 7.99414 22.6556 8.64949 22.6556 11.8362C22.6556 14.8345 26.8349 14.8717 26.8349 16.4466C26.8349 18.0215 23.0862 17.7393 21.8491 16.7462L21.3999 19.3521C21.3999 19.3521 22.7491 20.0074 24.8104 20.0074C26.8724 20.0074 29.9831 18.9398 29.9831 16.034C29.9831 13.0165 25.7663 12.7356 25.7663 11.4236C25.7666 10.1114 28.7093 10.2799 30.0023 10.9924Z" fill="#2566AF"/>
<path d="M10.7535 14.4653L9.73678 9.24613C9.73678 9.24613 9.61385 8.20117 8.30346 8.20117H3.54123L3.48535 8.39768C3.48535 8.39768 5.77426 8.87204 7.96973 10.6493C10.069 12.3481 10.7535 14.4653 10.7535 14.4653Z" fill="#E6A540"/>
</g>
<defs>
<clipPath id="clip0_947_3324">
<rect width="44" height="28" fill="white"/>
</clipPath>
</defs>
</svg>
