<svg width="24" height="24" viewBox="0 0 24 24" fill="none" xmlns="http://www.w3.org/2000/svg">
<g id="vuesax/linear/monitor-mobbile">
<g id="monitor-mobbile">
<path id="Vector" d="M10 16.9503H6.21C2.84 16.9503 2 16.1103 2 12.7403V6.74027C2 3.37027 2.84 2.53027 6.21 2.53027H16.74C20.11 2.53027 20.95 3.37027 20.95 6.74027" stroke="#CDCDCD" stroke-linecap="round" stroke-linejoin="round"/>
<path id="Vector_2" d="M10 21.4702V16.9502" stroke="#CDCDCD" stroke-linecap="round" stroke-linejoin="round"/>
<path id="Vector_3" d="M2 12.9502H10" stroke="#CDCDCD" stroke-linecap="round" stroke-linejoin="round"/>
<path id="Vector_4" d="M6.74023 21.4697H10.0002" stroke="#CDCDCD" stroke-linecap="round" stroke-linejoin="round"/>
<path id="Vector_5" d="M22.0003 12.7998V18.5098C22.0003 20.8798 21.4103 21.4698 19.0403 21.4698H15.4903C13.1203 21.4698 12.5303 20.8798 12.5303 18.5098V12.7998C12.5303 10.4298 13.1203 9.83984 15.4903 9.83984H19.0403C21.4103 9.83984 22.0003 10.4298 22.0003 12.7998Z" stroke="#CDCDCD" stroke-linecap="round" stroke-linejoin="round"/>
<path id="Vector_6" d="M17.2445 18.25H17.2535" stroke="#CDCDCD" stroke-linecap="round" stroke-linejoin="round"/>
</g>
</g>
</svg>
