<svg width="36" height="36" viewBox="0 0 36 36" fill="none" xmlns="http://www.w3.org/2000/svg">
<path d="M18 4C25.7311 4 32 10.2689 32 18C32 25.7311 25.7311 32 18 32C10.2689 32 4 25.735 4 18C4 10.265 10.2689 4 18 4Z" fill="#26A17B"/>
<path d="M19.971 16.4394V14.355H24.7348V11.1816H11.7654V14.355H16.5293V16.4394C12.6598 16.6183 9.74707 17.3844 9.74707 18.3022C9.74707 19.22 12.6598 19.9861 16.5293 20.165V26.8344H19.9748V20.165C23.8404 19.9861 26.7454 19.22 26.7454 18.3022C26.7415 17.3844 23.8365 16.6183 19.971 16.4394ZM19.9748 19.6011C19.8776 19.605 19.3798 19.6361 18.2676 19.6361C17.3771 19.6361 16.7548 19.6128 16.5332 19.6011V19.605C13.1148 19.4533 10.5598 18.8583 10.5598 18.1466C10.5598 17.435 13.111 16.84 16.5332 16.6883V19.0061C16.7587 19.0216 17.3965 19.0605 18.2832 19.0605C19.3448 19.0605 19.8776 19.0178 19.9787 19.0061V16.6805C23.3932 16.8322 25.9404 17.4272 25.9404 18.1389C25.9326 18.8505 23.3854 19.4455 19.9748 19.6011Z" fill="white"/>
</svg>
