<svg width="26" height="26" viewBox="0 0 26 26" fill="none" xmlns="http://www.w3.org/2000/svg">
<g id="telegram-icon" clip-path="url(#clip0_893_1559)">
<g id="Group">
<path id="Blue_BG" d="M12.9996 25.593C19.9547 25.593 25.593 19.9547 25.593 12.9996C25.593 6.04449 19.9547 0.40625 12.9996 0.40625C6.04449 0.40625 0.40625 6.04449 0.40625 12.9996C0.40625 19.9547 6.04449 25.593 12.9996 25.593Z" fill="url(#paint0_linear_893_1559)"/>
<path id="Plan" d="M6.10046 12.863C9.77062 11.2692 12.2136 10.21 13.4403 9.6962C16.9321 8.23864 17.6658 7.98696 18.1379 7.97656C18.243 7.97656 18.4733 7.99736 18.6309 8.1232C18.7567 8.22824 18.7879 8.36448 18.8093 8.469C18.8301 8.57404 18.8514 8.794 18.8301 8.96196C18.6413 10.9541 17.8233 15.788 17.4042 18.011C17.2259 18.9548 16.8801 19.2694 16.5447 19.3006C15.8104 19.3635 15.2551 18.818 14.5525 18.3568C13.4413 17.6335 12.8225 17.1826 11.7425 16.4692C10.4945 15.6512 11.302 15.2004 12.0149 14.4667C12.2037 14.2779 15.4225 11.342 15.4854 11.0799C15.4958 11.0487 15.4958 10.9229 15.4225 10.86C15.3492 10.797 15.2441 10.8178 15.1604 10.8392C15.045 10.86 13.2837 12.0346 9.85486 14.3518C9.3515 14.6976 8.90066 14.8655 8.49194 14.8551C8.0411 14.8447 7.18102 14.6034 6.53102 14.3939C5.74478 14.1422 5.11558 14.006 5.1681 13.5655C5.19878 13.3346 5.51338 13.1043 6.10046 12.863Z" fill="white"/>
</g>
</g>
<defs>
<linearGradient id="paint0_linear_893_1559" x1="12.9996" y1="0.40573" x2="12.9996" y2="25.3917" gradientUnits="userSpaceOnUse">
<stop stop-color="#2AABEE"/>
<stop offset="1" stop-color="#229ED9"/>
</linearGradient>
<clipPath id="clip0_893_1559">
<rect width="26" height="26" fill="white"/>
</clipPath>
</defs>
</svg>
